<?xml version="1.0" standalone="no"?>
<!DOCTYPE svg PUBLIC "-//W3C//DTD SVG 20010904//EN"
 "http://www.w3.org/TR/2001/REC-SVG-20010904/DTD/svg10.dtd">
<svg version="1.0" xmlns="http://www.w3.org/2000/svg"
 width="140.000000pt" height="140.000000pt" viewBox="0 0 140.000000 140.000000"
 preserveAspectRatio="xMidYMid meet">
<metadata>
Created by potrace 1.14, written by Peter Selinger 2001-2017
</metadata>
<g transform="translate(0.000000,140.000000) scale(0.100000,-0.100000)"
fill="#000000" stroke="none">
<path d="M550 1383 c-36 -8 -73 -22 -83 -31 -23 -20 -87 -134 -87 -154 0 -25
41 -36 150 -42 58 -2 112 -7 121 -11 11 -4 33 15 75 63 32 37 82 88 111 112
29 25 53 48 53 51 1 24 -250 33 -340 12z"/>
<path d="M843 1245 c-58 -58 -103 -110 -101 -116 2 -7 26 -20 52 -31 62 -24
173 -96 229 -147 39 -36 48 -40 80 -34 30 4 38 11 46 37 16 48 29 156 25 211
-3 42 -8 55 -37 80 -36 31 -162 105 -179 105 -6 0 -57 -47 -115 -105z"/>
<path d="M332 1293 c-69 -42 -159 -126 -203 -190 l-29 -42 48 22 c27 13 67 42
89 65 22 23 49 42 60 42 14 0 28 16 48 53 15 28 35 60 43 70 22 25 13 22 -56
-20z"/>
<path d="M1216 1074 c1 -55 -3 -120 -10 -146 -9 -31 -9 -52 -3 -64 13 -24 17
-103 6 -131 -6 -16 -1 -41 15 -85 32 -86 47 -163 49 -257 1 -59 5 -77 13 -70
21 17 76 142 94 214 23 91 21 264 -5 350 -22 77 -87 202 -129 251 l-32 37 2
-99z"/>
<path d="M289 1129 c-16 -16 -18 -23 -8 -35 14 -17 51 -18 67 -2 13 13 16 48
5 49 -5 0 -16 2 -26 4 -10 2 -27 -5 -38 -16z"/>
<path d="M401 1071 c-7 -11 -18 -21 -25 -21 -8 0 -24 -8 -36 -18 -20 -16 -22
-26 -21 -122 0 -58 2 -116 5 -130 20 -94 32 -132 57 -187 21 -48 33 -63 48
-63 16 0 21 7 22 28 0 15 2 35 4 44 2 9 6 34 9 55 15 101 67 253 122 350 24
43 31 64 23 69 -7 4 -54 9 -105 12 -86 4 -93 3 -103 -17z"/>
<path d="M145 1030 c-38 -17 -76 -38 -83 -47 -7 -10 -22 -47 -33 -83 -25 -75
-33 -245 -17 -326 10 -49 12 -52 62 -72 62 -26 139 -50 186 -57 31 -4 38 -1
56 26 l21 30 -28 70 c-15 38 -35 104 -44 146 -16 79 -19 235 -4 285 6 23 3 31
-14 43 -27 19 -19 20 -102 -15z"/>
<path d="M631 948 c-53 -111 -84 -205 -100 -308 -21 -126 -21 -122 16 -157
l34 -32 67 21 c123 38 229 101 323 193 57 56 57 57 58 115 0 57 -1 59 -47 102
-26 24 -69 59 -95 77 -54 36 -168 91 -192 91 -9 0 -34 -39 -64 -102z"/>
<path d="M1088 815 c-21 -46 23 -103 57 -75 15 13 20 56 9 84 -10 26 -53 20
-66 -9z"/>
<path d="M1003 580 c-65 -62 -103 -88 -185 -128 -57 -28 -128 -57 -159 -63
-51 -12 -58 -16 -67 -46 -9 -30 -7 -35 20 -58 92 -77 251 -145 378 -161 25 -3
55 -7 67 -9 26 -4 82 34 139 97 39 43 41 48 38 99 -6 112 -16 170 -39 238 -33
98 -38 105 -77 107 -29 2 -43 -8 -115 -76z"/>
<path d="M57 427 c38 -98 148 -235 241 -299 57 -39 147 -83 200 -98 24 -6 49
-13 56 -16 8 -3 3 18 -15 54 -15 33 -37 88 -49 124 -16 49 -25 64 -41 65 -61
5 -116 41 -143 94 -8 15 -33 28 -88 44 -42 12 -100 33 -127 48 l-50 26 16 -42z"/>
<path d="M387 442 c-55 -61 38 -154 108 -108 57 38 19 126 -54 126 -24 0 -44
-7 -54 -18z"/>
<path d="M554 187 c13 -41 36 -99 52 -131 l29 -57 75 2 c88 2 209 29 277 61
l48 23 -70 6 c-143 13 -283 66 -391 146 -17 13 -33 23 -37 23 -3 0 5 -33 17
-73z"/>
</g>
</svg>
